<?xml version="1.0" standalone="no"?>
<!DOCTYPE svg PUBLIC "-//W3C//DTD SVG 20010904//EN"
 "http://www.w3.org/TR/2001/REC-SVG-20010904/DTD/svg10.dtd">
<svg version="1.0" xmlns="http://www.w3.org/2000/svg"
 width="1147.000000pt" height="1147.000000pt" viewBox="0 0 1147.000000 1147.000000"
 preserveAspectRatio="xMidYMid meet">
<metadata>
Created by potrace 1.14, written by Peter Selinger 2001-2017
</metadata>
<g transform="translate(0.000000,1147.000000) scale(0.100000,-0.100000)"
fill="#000000" stroke="none">
<path d="M5290 11459 c-981 -78 -1937 -410 -2751 -954 -960 -643 -1713 -1576
-2136 -2645 -222 -561 -346 -1100 -393 -1699 -13 -174 -13 -678 0 -852 59
-760 253 -1461 592 -2139 64 -129 153 -296 198 -370 501 -834 1170 -1503 2000
-2000 181 -108 644 -338 745 -370 22 -7 67 -25 101 -41 158 -71 570 -197 846
-259 423 -93 775 -130 1243 -130 567 0 1015 60 1542 205 385 107 624 201 1078
426 659 325 1312 847 1799 1439 297 360 506 682 714 1100 339 678 533 1379
592 2139 13 174 13 678 0 852 -59 760 -253 1461 -592 2139 -124 248 -225 424
-363 631 -643 960 -1576 1713 -2645 2136 -561 222 -1100 346 -1699 393 -156
12 -717 11 -871 -1z"/>
</g>
</svg>
